<?xml version="1.0" encoding="utf-8"?>
<!-- Generator: Adobe Illustrator 24.0.1, SVG Export Plug-In . SVG Version: 6.00 Build 0)  -->
<svg version="1.1" id="Capa_1" xmlns="http://www.w3.org/2000/svg" xmlns:xlink="http://www.w3.org/1999/xlink" x="0px" y="0px"
	 viewBox="0 0 141.8 132" enable-background="new 0 0 141.8 132" xml:space="preserve">
<g>
	<g>
		<defs>
			<rect id="SVGID_1_" x="-1228.4" y="-201" width="1265" height="51"/>
		</defs>
		<clipPath id="SVGID_2_">
			<use xlink:href="#SVGID_1_"  overflow="visible"/>
		</clipPath>
	</g>
</g>
<g>
	<g>
		<path fill="#22A0E5" d="M-107.2,117.5h-35.3V17.1h35.3c2.5,0,4.5,2,4.5,4.5V113C-102.7,115.5-104.7,117.5-107.2,117.5z"/>
	</g>
	<g>
		<path fill="#22A0E5" d="M-153.2,126.9l-47.1-8.1c-2.8-0.5-4.8-2.9-4.8-5.8V21.5c0-2.8,2-5.2,4.7-5.7l47.1-9.6
			c3.6-0.7,6.9,2,6.9,5.7v109.3C-146.4,124.8-149.6,127.5-153.2,126.9z"/>
	</g>
	<g>
		<g>
			<rect x="-136.3" y="26.1" fill="#FFFFFF" width="24.2" height="3"/>
		</g>
		<g>
			<rect x="-136.3" y="34.1" fill="#FFFFFF" width="24.2" height="3"/>
		</g>
		<g>
			<rect x="-136.3" y="42.1" fill="#FFFFFF" width="24.2" height="3"/>
		</g>
	</g>
	<g>
		<g>
			<rect x="-136.3" y="57.2" fill="#FFFFFF" width="24.2" height="3"/>
		</g>
		<g>
			<rect x="-136.3" y="65.2" fill="#FFFFFF" width="24.2" height="3"/>
		</g>
		<g>
			<rect x="-136.3" y="73.3" fill="#FFFFFF" width="24.2" height="3"/>
		</g>
	</g>
	<g>
		<g>
			<rect x="-136.3" y="88.3" fill="#FFFFFF" width="24.2" height="3"/>
		</g>
		<g>
			<rect x="-136.3" y="96.3" fill="#FFFFFF" width="24.2" height="3"/>
		</g>
		<g>
			<rect x="-136.3" y="104.3" fill="#FFFFFF" width="24.2" height="3"/>
		</g>
	</g>
	<g>
		<g>
			<path fill="#FFFFFF" d="M-191.9,94c-0.5,0-0.9-0.1-1.3-0.3c-1.4-0.7-1.9-2.5-1.2-3.9l27.5-52.7c0.7-1.4,2.5-1.9,3.9-1.2
				c1.4,0.7,1.9,2.5,1.2,3.9l-27.5,52.7C-189.9,93.4-190.9,94-191.9,94z"/>
		</g>
		<g>
			<path fill="#FFFFFF" d="M-163.4,95.3c-1,0-2-0.5-2.5-1.5l-28.5-52c-0.8-1.4-0.3-3.1,1.1-3.9c1.4-0.8,3.1-0.3,3.9,1.1l28.5,52
				c0.8,1.4,0.3,3.1-1.1,3.9C-162.5,95.2-162.9,95.3-163.4,95.3z"/>
		</g>
	</g>
</g>
<g>
	<path fill="#22A0E5" d="M127.1,125.5H14.7c-1.8,0-3.3-1.5-3.3-3.3V9.8c0-1.8,1.5-3.3,3.3-3.3h112.4c1.8,0,3.3,1.5,3.3,3.3v112.4
		C130.4,124,128.9,125.5,127.1,125.5z"/>
	<g>
		<g>
			<g>
				<g>
					<path fill="#FFFFFF" d="M74,103.9c-0.7,0-1.3-0.6-1.3-1.3V27.1c0-0.7,0.6-1.3,1.3-1.3c0.7,0,1.3,0.6,1.3,1.3v75.4
						C75.3,103.3,74.7,103.9,74,103.9z"/>
				</g>
			</g>
		</g>
		<g>
			<g>
				<path fill="#FFFFFF" d="M39.4,40c0.5-0.2,1-0.4,1.6-0.7c0.5-0.3,1.1-0.6,1.6-0.9c0.5-0.3,1-0.7,1.5-1c0.5-0.4,0.9-0.7,1.3-1.1
					H48v18h-3.9V41.3c-0.5,0.3-1.1,0.7-1.7,0.9c-0.6,0.3-1.3,0.5-1.9,0.7L39.4,40z"/>
			</g>
		</g>
		<g>
			<g>
				<path fill="#FFFFFF" d="M102.5,89.4c-0.4,0.2-0.8,0.3-1.2,0.4c-0.4,0.1-0.8,0.1-1.1,0.1c-1.1,0-2.1-0.1-2.9-0.4
					c-0.8-0.3-1.5-0.6-2-1.1s-0.9-1.1-1.1-1.8c-0.2-0.7-0.4-1.5-0.4-2.3c0-0.7,0.1-1.4,0.3-2.1s0.6-1.4,1.1-2
					c0.5-0.6,1.1-1.1,1.9-1.5c0.8-0.4,1.7-0.6,2.8-0.6c2.2,0,3.9,0.7,5,2.1c1.1,1.4,1.7,3.3,1.7,5.9c0,1.7-0.2,3.2-0.7,4.5
					c-0.4,1.3-1.1,2.4-2.1,3.3c-0.9,0.9-2.1,1.6-3.5,2c-1.4,0.5-3.1,0.7-5.1,0.7c0-0.6,0-1.1-0.1-1.6c0-0.5-0.1-1.1-0.1-1.6
					c1,0,1.9-0.1,2.7-0.2c0.8-0.1,1.5-0.3,2.1-0.6c0.6-0.3,1.1-0.7,1.5-1.2C101.9,90.8,102.3,90.1,102.5,89.4z M100.6,86.9
					c0.4,0,0.8,0,1.2-0.1c0.4-0.1,0.8-0.2,1-0.3v-0.2c0-0.1,0-0.1,0-0.2c0-0.1,0-0.1,0-0.2c0-0.6-0.1-1.2-0.2-1.7
					c-0.1-0.5-0.2-1-0.4-1.4c-0.2-0.4-0.5-0.7-0.8-1c-0.4-0.2-0.8-0.3-1.3-0.3c-0.4,0-0.8,0.1-1.1,0.3c-0.3,0.2-0.6,0.4-0.8,0.7
					c-0.2,0.3-0.3,0.6-0.4,0.9c-0.1,0.3-0.1,0.6-0.1,1c0,0.9,0.2,1.6,0.7,2.1C98.8,86.6,99.6,86.9,100.6,86.9z"/>
			</g>
		</g>
		<g>
			<g>
				<path fill="#FFFFFF" d="M49.7,96.3c-0.2-0.6-0.4-1.3-0.6-1.9c-0.2-0.7-0.5-1.3-0.7-2h-7c-0.2,0.7-0.5,1.3-0.7,2
					c-0.2,0.7-0.4,1.3-0.6,1.9h-4.2c0.7-1.9,1.3-3.7,1.9-5.4c0.6-1.6,1.2-3.2,1.8-4.6c0.6-1.5,1.2-2.8,1.7-4.1
					c0.6-1.3,1.1-2.6,1.8-3.8h3.8c0.6,1.2,1.2,2.5,1.7,3.8s1.1,2.7,1.7,4.1c0.6,1.5,1.2,3,1.8,4.6c0.6,1.6,1.2,3.4,1.9,5.4
					L49.7,96.3L49.7,96.3z M44.9,82.4c-0.1,0.3-0.2,0.6-0.4,1.1c-0.2,0.4-0.4,1-0.6,1.6c-0.2,0.6-0.5,1.2-0.7,1.9
					c-0.3,0.7-0.6,1.5-0.8,2.2h5.1c-0.3-0.8-0.5-1.5-0.8-2.2c-0.3-0.7-0.5-1.4-0.7-1.9c-0.2-0.6-0.4-1.1-0.6-1.6
					C45.1,83,45,82.7,44.9,82.4z"/>
			</g>
		</g>
		<g>
			<g>
				<path fill="#FFFFFF" d="M99.8,54.5c-1,0-2,0-2.9-0.1c-1-0.1-2-0.2-3-0.4V36.5c0.8-0.2,1.7-0.3,2.7-0.3c1-0.1,1.9-0.1,2.8-0.1
					c1.1,0,2.2,0.1,3.1,0.2c1,0.2,1.8,0.4,2.5,0.8c0.7,0.4,1.2,0.9,1.6,1.6c0.4,0.6,0.6,1.5,0.6,2.4c0,1.4-0.7,2.6-2.1,3.4
					c1.1,0.4,1.9,1,2.3,1.8c0.4,0.7,0.6,1.6,0.6,2.5c0,1.9-0.7,3.3-2.1,4.3C104.6,54,102.6,54.5,99.8,54.5z M97.8,43.3h2
					c1.2,0,2.1-0.2,2.7-0.5c0.5-0.3,0.8-0.8,0.8-1.5c0-0.7-0.3-1.2-0.8-1.5c-0.6-0.3-1.4-0.4-2.4-0.4c-0.3,0-0.7,0-1.1,0
					c-0.4,0-0.8,0-1.1,0.1L97.8,43.3L97.8,43.3z M97.8,46.4V51c0.3,0,0.6,0.1,1,0.1s0.7,0,1.1,0c1.2,0,2.2-0.2,2.9-0.5
					c0.7-0.3,1.1-1,1.1-1.9c0-0.8-0.3-1.4-0.9-1.8c-0.6-0.4-1.5-0.5-2.7-0.5L97.8,46.4L97.8,46.4z"/>
			</g>
		</g>
		<g>
			<g>
				<path fill="#FFFFFF" d="M123.3,120.8h-11.4c-0.8,0-1.6-0.6-1.7-1.4c-0.2-1,0.6-1.9,1.6-1.9h10.6V107c0-0.8,0.6-1.6,1.4-1.7
					c1-0.2,1.9,0.6,1.9,1.6v11.5C125.7,119.8,124.6,120.8,123.3,120.8z"/>
			</g>
			<g>
				<path fill="#FFFFFF" d="M29.9,120.8H18.5c-1.3,0-2.4-1.1-2.4-2.4V107c0-0.8,0.6-1.6,1.4-1.7c1-0.2,1.9,0.6,1.9,1.6v10.6H30
					c1,0,1.8,0.9,1.6,1.9C31.4,120.3,30.7,120.8,29.9,120.8z"/>
			</g>
			<g>
				<path fill="#FFFFFF" d="M17.4,26.7C16.6,26.6,16,25.8,16,25V13.6c0-1.3,1.1-2.4,2.4-2.4h11.4c0.8,0,1.6,0.6,1.7,1.4
					c0.2,1-0.6,1.9-1.6,1.9H19.3v10.6C19.3,26.1,18.4,26.8,17.4,26.7z"/>
			</g>
			<g>
				<path fill="#FFFFFF" d="M123.8,26.7c-0.8-0.1-1.4-0.9-1.4-1.7V14.4h-10.6c-0.8,0-1.6-0.6-1.7-1.4c-0.2-1,0.6-1.9,1.6-1.9h11.5
					c1.3,0,2.4,1.1,2.4,2.4v11.5C125.7,26.1,124.9,26.8,123.8,26.7z"/>
			</g>
		</g>
	</g>
</g>
</svg>
