<?xml version="1.0" encoding="utf-8"?>
<!-- Generator: Adobe Illustrator 24.0.0, SVG Export Plug-In . SVG Version: 6.00 Build 0)  -->
<svg version="1.1" id="Capa_1" xmlns="http://www.w3.org/2000/svg" xmlns:xlink="http://www.w3.org/1999/xlink" x="0px" y="0px"
	 viewBox="0 0 150 150" style="enable-background:new 0 0 150 150;" xml:space="preserve">
<style type="text/css">
	.st0{fill:#22A0E5;}
	.st1{fill:#FFFFFF;}
	.st2{fill:none;stroke:#72B148;stroke-width:2;stroke-miterlimit:10;}
	.st3{fill:none;stroke:#FFFFFF;stroke-miterlimit:10;}
	.st4{fill:none;stroke:#22A0E5;stroke-width:2;stroke-miterlimit:10;}
	.st5{fill:none;stroke:#2EA0D6;stroke-width:3;stroke-linecap:round;stroke-miterlimit:10;}
	.st6{fill:none;stroke:#EEEEEE;stroke-width:2;stroke-miterlimit:10;}
	.st7{fill:#5E9EE1;}
	.st8{fill:none;stroke:#5E9EE1;stroke-width:2;stroke-miterlimit:10;}
	.st9{fill-rule:evenodd;clip-rule:evenodd;fill:#FFFFFF;}
	.st10{fill:none;stroke:#22A0E5;stroke-width:8;stroke-miterlimit:10;}
	.st11{fill:#060606;}
	.st12{fill:#DB2A37;}
	.st13{fill:#00A0FF;}
	.st14{fill:none;stroke:#22A0E5;stroke-width:3;stroke-linecap:round;stroke-miterlimit:10;stroke-dasharray:9.0681,9.0681;}
	.st15{fill:none;stroke:#22A0E5;stroke-width:3;stroke-linecap:round;stroke-miterlimit:10;}
	.st16{fill:#EEEEEE;}
	.st17{fill:#22A0E5;stroke:#22A0E5;stroke-width:5;stroke-miterlimit:10;}
	.st18{fill:#FFFFFF;stroke:#FFFFFF;stroke-width:5;stroke-miterlimit:10;}
	.st19{fill:none;stroke:#22A0E5;stroke-linecap:round;stroke-miterlimit:10;}
	.st20{fill:none;stroke:#22A0E5;stroke-width:2;stroke-linecap:round;stroke-miterlimit:10;}
	.st21{fill:none;stroke:#FFFFFF;stroke-width:0.75;stroke-linecap:round;stroke-miterlimit:10;}
	.st22{fill:none;stroke:#FFFFFF;stroke-width:9;stroke-miterlimit:10;}
	.st23{fill:none;stroke:#22A0E5;stroke-width:5;stroke-linecap:round;stroke-linejoin:round;stroke-miterlimit:10;}
</style>
<circle class="st0" cx="77.89" cy="23.05" r="15.92"/>
<circle class="st0" cx="125.17" cy="109.04" r="15.92"/>
<circle class="st0" cx="22.18" cy="109.04" r="15.92"/>
<g>
	<path class="st0" d="M31.05,81.62c-1.22-11.83,9.52-27.88,21.3-34.3l-0.48,1.35c-0.83,2.31,0.37,4.86,2.69,5.7
		c1.85,0.67,3.85,0.04,5-1.42c0.29-0.37,0.52-0.78,0.69-1.25l3.59-9.99c0.02-0.05,0.01-0.1,0.02-0.15c0.09-0.27,0.09-0.55,0.12-0.83
		c0.04-0.31,0.1-0.62,0.07-0.93c0-0.05,0.02-0.1,0.01-0.15c-0.03-0.22-0.14-0.39-0.2-0.59c-0.08-0.31-0.15-0.61-0.3-0.9
		c-0.14-0.26-0.33-0.47-0.51-0.69c-0.18-0.22-0.33-0.44-0.55-0.62c-0.25-0.21-0.54-0.35-0.83-0.51c-0.18-0.09-0.32-0.24-0.52-0.31
		L47.9,31.22c-2.32-0.84-4.85,0.34-5.69,2.67c-0.83,2.31,0.37,4.86,2.69,5.7l1.88,0.68c-14.41,8.49-26.15,27.03-24.59,42.25
		c0.25,2.44,2.44,4.23,4.88,3.98C29.52,86.24,31.31,84.07,31.05,81.62z"/>
</g>
<g>
	<path class="st0" d="M96.77,41.21c11.22,3.95,21.14,20.52,21.92,33.91l-1.01-1.01c-1.74-1.74-4.55-1.74-6.3,0
		c-1.4,1.38-1.68,3.46-0.85,5.13c0.21,0.42,0.49,0.81,0.83,1.15l7.5,7.52c0.04,0.04,0.09,0.05,0.13,0.09
		c0.2,0.19,0.46,0.31,0.7,0.46c0.27,0.17,0.52,0.36,0.81,0.46c0.05,0.02,0.08,0.06,0.13,0.08c0.21,0.07,0.41,0.03,0.62,0.07
		c0.32,0.06,0.62,0.12,0.94,0.11c0.29-0.01,0.56-0.1,0.84-0.17c0.28-0.07,0.54-0.11,0.8-0.23c0.3-0.14,0.55-0.34,0.81-0.53
		c0.16-0.13,0.36-0.19,0.5-0.34l9.99-9.93c1.74-1.74,1.77-4.53,0.02-6.29c-1.73-1.74-4.55-1.74-6.3,0l-1.42,1.41
		c-1.53-16.65-13.27-35.19-27.7-40.27c-2.31-0.82-4.86,0.4-5.69,2.72C93.25,37.86,94.45,40.4,96.77,41.21z"/>
</g>
<g>
	<path class="st0" d="M97.77,111.41c-8.74,8.07-28.02,9.09-40.22,3.52l1.37-0.42c2.35-0.72,3.67-3.21,2.95-5.57
		c-0.57-1.88-2.27-3.11-4.14-3.15c-0.47-0.01-0.94,0.05-1.41,0.2l-10.15,3.11c-0.05,0.02-0.09,0.06-0.14,0.07
		c-0.26,0.09-0.49,0.26-0.74,0.41c-0.28,0.16-0.56,0.29-0.79,0.5c-0.04,0.03-0.09,0.05-0.13,0.08c-0.15,0.15-0.22,0.35-0.35,0.52
		c-0.2,0.25-0.4,0.49-0.54,0.78c-0.13,0.26-0.18,0.54-0.25,0.82c-0.07,0.27-0.16,0.53-0.17,0.81c-0.02,0.33,0.04,0.64,0.09,0.97
		c0.04,0.2,0,0.4,0.06,0.6l4.11,13.47c0.72,2.35,3.18,3.68,5.55,2.96c2.34-0.72,3.66-3.21,2.95-5.57l-0.59-1.91
		c15.43,6.44,37.31,4.72,48.55-5.65c1.8-1.66,1.92-4.49,0.26-6.3C102.38,109.86,99.57,109.73,97.77,111.41z"/>
</g>
</svg>
