<?xml version="1.0" encoding="utf-8"?>
<!DOCTYPE svg PUBLIC "-//W3C//DTD SVG 1.1//EN" "http://www.w3.org/Graphics/SVG/1.1/DTD/svg11.dtd">
<svg xmlns="http://www.w3.org/2000/svg" xmlns:xlink="http://www.w3.org/1999/xlink" version="1.1" baseProfile="full" width="107.604" height="100.521" viewBox="0 0 107.60 100.52" enable-background="new 0 0 107.60 100.52" xml:space="preserve">
	<path fill="#D3D2D2" fill-opacity="1" stroke-width="0.2" stroke-linejoin="miter" d="M 33.3477,100.521C 30.8032,100.521 28.3794,99.3398 26.8076,97.2891L 1.62109,64.3594C -1.14063,60.75 -0.453125,55.582 3.16064,52.8203C 6.77002,50.0625 11.9434,50.75 14.7012,54.3594L 31.9375,76.8945C 41.4395,59.7891 62.0884,28.3926 94.9326,7.16797C 98.7559,4.70508 103.848,5.79688 106.316,9.61328C 108.784,13.4316 107.691,18.5273 103.872,20.9961C 61.8545,48.1445 41.1016,95.0977 40.8965,95.5684C 39.7349,98.2461 37.2427,100.107 34.3442,100.461L 33.3477,100.521 Z "/>
	<path fill="#626262" fill-opacity="1" stroke-width="0.2" stroke-linejoin="miter" d="M 33.4385,94.5469C 30.8945,94.5469 28.4707,93.3652 26.8989,91.3145L 1.71191,58.3867C -1.0498,54.7773 -0.362305,49.6074 3.25195,46.8457C 6.86133,44.0879 12.0342,44.7754 14.792,48.3867L 32.0283,70.9199C 41.5303,53.8164 62.1797,22.418 95.0239,1.19531C 98.8467,-1.26953 103.939,-0.175781 106.407,3.63867C 108.875,7.45703 107.782,12.5547 103.963,15.0234C 61.9458,42.1719 41.1924,89.125 40.9873,89.5938C 39.8262,92.2715 37.334,94.1328 34.4355,94.4863L 33.4385,94.5469 Z "/>
</svg>
